SplineFontDB: 3.0
FontName: SloppyOscan
FullName: Sloppy Oscan
FamilyName: Sloppy Oscan
Weight: Medium
Copyright: (C) 2011 Thomas Kaeding; Created by The Mad Doctor Kaeding with FontForge 2.0 (http://fontforge.sf.net)
UComments: "2011-11-06:  Created." 
Version: 001.000
ItalicAngle: 0
UnderlinePosition: -100
UnderlineWidth: 50
Ascent: 800
Descent: 200
LayerCount: 2
Layer: 0 0 "Back"  1
Layer: 1 0 "Fore"  0
NeedsXUIDChange: 1
XUID: [1021 114 24073053 72136]
OS2Version: 0
OS2_WeightWidthSlopeOnly: 0
OS2_UseTypoMetrics: 1
CreationTime: 1320605129
ModificationTime: 1320607880
OS2TypoAscent: 0
OS2TypoAOffset: 1
OS2TypoDescent: 0
OS2TypoDOffset: 1
OS2TypoLinegap: 0
OS2WinAscent: 0
OS2WinAOffset: 1
OS2WinDescent: 0
OS2WinDOffset: 1
HheadAscent: 0
HheadAOffset: 1
HheadDescent: 0
HheadDOffset: 1
OS2Vendor: 'PfEd'
DEI: 91125
Encoding: ISO8859-1
UnicodeInterp: none
NameList: Adobe Glyph List
DisplaySize: -36
AntiAlias: 1
FitToEm: 1
WinInfo: 64 8 17
BeginChars: 256 22

StartChar: a
Encoding: 97 97 1
Width: 690
VWidth: 0
Flags: HW
LayerCount: 2
Fore
SplineSet
101 549 m 13
 467 249 l 29
 464 696 l 21
 380.000015259 699 287.000015259 711 239 696 c 4
 172.50022359 675.218826478 122.000003815 645 101 549 c 13
0 0 m 29
 0 525 l 21
 0 639 20.2386326477 663.558712599 80 720 c 4
 134.000003815 771 175.649000614 774.529805029 248 789 c 4
 293.000015259 798 431 789 548 789 c 29
 575.000015259 0 l 29
 479.000015259 0 l 29
 470 138 l 29
 89 444 l 29
 92.0000038147 0 l 29
 0 0 l 29
EndSplineSet
EndChar

StartChar: b
Encoding: 98 98 2
Width: 638
VWidth: 0
Flags: HW
LayerCount: 2
Fore
SplineSet
447.700195312 470.4296875 m 0
 450.700195312 545.4296875 443.6640625 724.596679688 440.69140625 725 c 0
 399.682617188 730.5703125 290.505859375 747.993164062 239.19140625 720.646484375 c 0
 190.21484375 694.544921875 153.645507812 658.958007812 158.19140625 603.646484375 c 0
 162.732421875 548.396484375 192.260742188 526.543945312 240.69140625 499.5703125 c 0
 288.80859375 472.770507812 447.459960938 464.434570312 447.700195312 470.4296875 c 0
448.69140625 81 m 0
 454.69140625 81 442.69140625 375 442.69140625 372 c 0
 442.69140625 369 236.705953612 381.77455372 172.19140625 345.646484375 c 0
 122.191299438 317.646484375 74.6083984375 270.592773438 90.19140625 201.646484375 c 0
 105.793945312 132.612304688 151.100585938 109 220.19140625 93.646484375 c 0
 274.19140625 81.646484375 396.145507812 81 448.69140625 81 c 0
538.69140625 0 m 0
 409.69140625 0 210.01171875 -15.3447265625 86 51 c 0
 15.5322265625 88.69921875 0.70703125 157.084960938 0 237 c 0
 -0.6005859375 304.881835938 33.037109375 344.04296875 83 390 c 0
 121.94140625 425.818359375 206 438 212 432 c 0
 215 429 136.55078125 446.61328125 102.69140625 490.5703125 c 0
 62.8623046875 542.278320312 42.1708984375 589.984375 60.69140625 652.5703125 c 0
 81.1162109375 721.592773438 122.29296875 759.295898438 189.69140625 784.5703125 c 0
 282.912109375 819.528320312 520.352539062 803.990234375 520.69140625 798 c 0
 529.69140625 639 544.69140625 0 538.69140625 0 c 0
EndSplineSet
EndChar

StartChar: g
Encoding: 103 103 3
Width: 602
VWidth: 0
Flags: HW
LayerCount: 2
Fore
SplineSet
0 735 m 25
 76.5 806.299804688 l 25
 508.5 410.299804688 l 25
 73.5 0 l 25
 0 60 l 25
 377 405 l 25
 0 735 l 25
EndSplineSet
EndChar

StartChar: k
Encoding: 107 107 4
Width: 659
VWidth: 0
Flags: HWO
LayerCount: 2
Fore
SplineSet
449.5 470.299804688 m 1
 446 798 l 1
 542.5 797.299804688 l 9
 548.5 0 l 25
 449.000015259 0 l 25
 446 366 l 1
 71.5 0 l 9
 0 60 l 25
 359.5 422.299804688 l 25
 0 735 l 25
 74.5 806.299804688 l 17
 449.5 470.299804688 l 1
EndSplineSet
EndChar

StartChar: r
Encoding: 114 114 5
Width: 689
VWidth: 0
Flags: HW
LayerCount: 2
Fore
SplineSet
503 108 m 1
 494 675 l 1
 425.000015259 678 240.296875 669.92578125 176.799804688 603.200195312 c 0
 111.434570312 534.510742188 104.231445312 463.79296875 110.799804688 369.200195312 c 0
 116.745117188 283.588867188 142.076171875 227.552734375 206.799804688 171.200195312 c 0
 269.6171875 116.506835938 437.000015259 93 503 108 c 1
575 798 m 1
 587 0 l 1
 425.000015259 -15 274.342773438 1.0517578125 140.799804688 93.2001953125 c 0
 65.7275390625 144.154296875 -6.751953125 278.844726562 0 396.200195312 c 1
 0 510.200195312 1.6318359375 529.689453125 62 621 c 0
 101.799804688 681.200195312 157.909179688 712.532226562 224.799804688 741.200195312 c 0
 308.799804688 777.200195312 503.000015259 801 575 798 c 1
EndSplineSet
EndChar

StartChar: d
Encoding: 100 100 6
Width: 599
VWidth: 0
Flags: HW
LayerCount: 2
Fore
SplineSet
6.30859375 57 m 1
 32.30859375 90 224.30859375 336 293.30859375 399 c 0
 296.44140625 401.860351562 156.1953125 412.33984375 158.200195312 410.334960938 c 0
 161.200195312 407.334960938 82.859375 446.61328125 49 490.5703125 c 0
 9.1708984375 542.278320312 -11.5205078125 589.984375 7 652.5703125 c 0
 27.4248046875 721.592773438 68.6015625 759.295898438 136 784.5703125 c 0
 229.220703125 819.528320312 485.200201971 800.334772504 485.200195312 794.334960938 c 0
 485.200012207 629.334915161 497.200195312 -3.6650390625 491.200195312 -3.6650390625 c 9
 389.30859375 0 l 17
 395.30859375 0 389.200195312 374.334960938 389.200195312 371.334960938 c 0
 389.200195312 368.334960938 140.200195312 69 77.2001953125 0 c 1
 53.2000007629 26.3349151611 23.515625 39.87109375 6.30859375 57 c 1
392.200195312 485.334960938 m 0
 395.200195312 560.334960938 389.97265625 724.596679688 387 725 c 0
 345.991210938 730.5703125 233.514648438 743.681640625 182.200195312 716.334960938 c 0
 133.223632812 690.233398438 108.654296875 663.646484375 113.200195312 608.334960938 c 0
 117.741210938 553.084960938 138.569335938 526.543945312 187 499.5703125 c 0
 235.1171875 472.770507812 391.959960938 479.33984375 392.200195312 485.334960938 c 0
EndSplineSet
EndChar

StartChar: f
Encoding: 102 102 7
Width: 549
VWidth: 0
Flags: HW
LayerCount: 2
Fore
SplineSet
200.799804688 96 m 0
 286.19140625 94.220703125 357.909179688 154.955078125 365.799804688 240 c 0
 373.064453125 318.297851562 306.416992188 385.362304688 227.799804688 387 c 0
 147.529296875 388.671875 85.2177734375 325.944335938 77.7998046875 246 c 0
 70.810546875 170.670898438 125.163085938 97.576171875 200.799804688 96 c 0
215.799804688 510 m 0
 280.295898438 512.6875 331.725585938 565.4765625 329.799804688 630 c 0
 328.115234375 686.438476562 266.21484375 713.350585938 209.799804688 711 c 0
 158.524414062 708.86328125 112.268554688 672.296875 113.799804688 621 c 0
 115.553710938 562.234375 157.05859375 507.551757812 215.799804688 510 c 0
125.799804688 447 m 0
 128.655273438 447.920898438 23.7998046875 495 17.7998046875 600 c 0
 11.6123046875 708.280273438 113.586914062 781.732421875 221.799804688 789 c 0
 321.348632812 795.686523438 415.053710938 726.66015625 419.799804688 627 c 0
 425.799804688 501 305.091796875 450 311.799804688 450 c 0
 377.799804688 450 458.799804688 348 449.799804688 228 c 0
 440.270507812 100.940429688 343.036132812 6.7890625 215.799804688 0 c 0
 100.149414062 -6.1708984375 22.8603515625 90.4638671875 0 204 c 0
 -21.0634765625 308.6171875 32.7998046875 417 125.799804688 447 c 0
EndSplineSet
EndChar

StartChar: e
Encoding: 101 101 8
Width: 616
VWidth: 0
Flags: HW
LayerCount: 2
Fore
SplineSet
0 0 m 25
 -0.900390625 95.900390625 l 25
 409.099609375 92.900390625 l 25
 410 369 l 25
 167.000003815 375 l 25
 169.099609375 470.900390625 l 25
 415.099609375 467.900390625 l 25
 421.099609375 692.900390625 l 25
 2.099609375 704.900390625 l 25
 0 801 l 25
 511.099609375 788.900390625 l 25
 511.099609375 -3.099609375 l 25
 0 0 l 25
EndSplineSet
EndChar

StartChar: v
Encoding: 118 118 9
Width: 589
VWidth: 0
Flags: HW
LayerCount: 2
Fore
SplineSet
400.099609375 710.900390625 m 25
 0 710.900390625 l 25
 0 801 l 25
 491 792 l 25
 491 0 l 25
 0 0 l 25
 0 95.900390625 l 25
 403.099609375 95.900390625 l 25
 400.099609375 710.900390625 l 25
EndSplineSet
EndChar

StartChar: z
Encoding: 122 122 10
Width: 669
VWidth: 0
Flags: HW
LayerCount: 2
Fore
SplineSet
323 696 m 1
 323 108 l 1
 566 108 l 1
 569 0 l 1
 0 0 l 1
 0 111 l 1
 242 102 l 1
 236 699 l 1
 0 699 l 1
 0 807 l 1
 545 795 l 1
 542 693 l 1
 323 696 l 1
EndSplineSet
EndChar

StartChar: h
Encoding: 104 104 11
Width: 596
VWidth: 0
Flags: HW
LayerCount: 2
Fore
SplineSet
80 447 m 1
 416 441 l 1
 428 714 l 1
 83 711 l 1
 80 447 l 1
74 87 m 1
 410 78 l 1
 413 369 l 1
 83 375 l 1
 74 87 l 1
0 0 m 1
 0 800 l 1
 500 800 l 1
 500 0 l 1
 0 0 l 1
EndSplineSet
EndChar

StartChar: i
Encoding: 105 105 12
Width: 215
VWidth: 0
Flags: HW
LayerCount: 2
Fore
SplineSet
0 0 m 1
 0 804 l 1
 109 806.599609375 l 1
 103 5.599609375 l 1
 0 0 l 1
EndSplineSet
EndChar

StartChar: l
Encoding: 108 108 13
Width: 600
VWidth: 0
Flags: HW
LayerCount: 2
Fore
SplineSet
6 257 m 1
 71 330 l 1
 391 130 l 1
 391 800 l 1
 491 800 l 1
 491 0 l 1
 391 0 l 1
 6 257 l 1
EndSplineSet
EndChar

StartChar: m
Encoding: 109 109 14
Width: 850
VWidth: 0
Flags: HW
LayerCount: 2
Fore
SplineSet
0 0 m 29
 0 801 l 29
 80.0000038147 804 l 29
 83 321 l 29
 329 570 l 29
 329.000015259 795 l 29
 416.000015259 798 l 29
 419 348 l 29
 638 579 l 25
 647 798 l 29
 737 801 l 29
 737 0 l 29
 647 0 l 29
 647 462 l 29
 419 219 l 29
 425.000015259 0 l 29
 329 0 l 29
 332 453 l 29
 86 198 l 29
 92 -0 l 29
 0 0 l 29
EndSplineSet
EndChar

StartChar: n
Encoding: 110 110 15
Width: 569
VWidth: 0
Flags: HW
LayerCount: 2
Fore
SplineSet
458 219 m 25
 464 0 l 25
 368 0 l 25
 371 453 l 25
 86 198 l 25
 92 -0 l 25
 0 0 l 25
 0 801 l 25
 80.0000038147 804 l 25
 83 321 l 25
 368 570 l 25
 368 795 l 25
 455 798 l 25
 458 219 l 25
EndSplineSet
EndChar

StartChar: p
Encoding: 112 112 16
Width: 690
VWidth: 0
Flags: HW
LayerCount: 2
Fore
SplineSet
470 261 m 9
 464 696 l 17
 380.000015259 699 287.000015259 711 239 696 c 0
 172.50022359 675.218826478 113 660 92 564 c 1
 89 444 l 9
 92.0000038147 0 l 25
 0 0 l 25
 0 525 l 17
 0 639 20.2386326477 663.558712599 80 720 c 0
 134.000003815 771 175.649000614 774.529805029 248 789 c 0
 293.000015259 798 431 789 548 789 c 25
 575.000015259 0 l 25
 479.000015259 0 l 25
 473 126 l 17
 470 261 l 9
EndSplineSet
EndChar

StartChar: s
Encoding: 115 115 17
Width: 553
VWidth: 0
Flags: HW
LayerCount: 2
Fore
SplineSet
0 720 m 25
 73.099609375 804.200195312 l 25
 415.099609375 579.200195312 l 25
 151.099609375 291.200195312 l 25
 451.099609375 87.2001953125 l 25
 398.000015259 0 l 25
 0 276 l 25
 266 555 l 25
 0 720 l 25
EndSplineSet
EndChar

StartChar: t
Encoding: 116 116 18
Width: 787
VWidth: 0
Flags: HW
LayerCount: 2
Fore
SplineSet
0 798 m 1
 680 801 l 1
 683.299804688 704 l 1
 413.599609375 707 l 1
 407.299804688 0 l 1
 317 0 l 1
 322 708 l 1
 0 714 l 1
 0 810 l 1
 0 798 l 1
EndSplineSet
EndChar

StartChar: u
Encoding: 117 117 19
Width: 772
VWidth: 0
Flags: HW
LayerCount: 2
Fore
SplineSet
0 783 m 25
 108.400390625 800.700195312 l 25
 358.400390625 218.700195312 l 25
 569.000015259 798 l 25
 676.400390625 780.700195312 l 25
 362.000015259 -12 l 25
 0 783 l 25
EndSplineSet
EndChar

StartChar: U
Encoding: 85 85 20
Width: 788
VWidth: 0
Flags: HW
LayerCount: 2
Fore
SplineSet
299.400390625 751.461914062 m 24
 296.8671875 788.614257812 328.400390625 816.2578125 365.400390625 820.461914062 c 24
 398.4453125 824.216796875 429.137695312 799.642578125 431.400390625 766.461914062 c 24
 433.962890625 728.872070312 411.8359375 692.715820312 374.400390625 688.461914062 c 24
 336.444335938 684.1484375 301.999023438 713.350585938 299.400390625 751.461914062 c 24
0 783 m 25
 104.400390625 805.461914062 l 17
 178.870652894 634.357620993 372.1953125 226.743164062 368.400390625 235.461914062 c 9
 584 801 l 25
 686.400390625 775.461914062 l 25
 374.400390625 -16.5380859375 l 25
 0 783 l 25
EndSplineSet
EndChar

StartChar: I
Encoding: 73 73 21
Width: 366
VWidth: 0
Flags: HW
LayerCount: 2
Fore
SplineSet
103.599609375 374.599609375 m 21
 101.599609375 3 l 1
 0 0 l 1
 0 804 l 1
 107.599609375 804 l 1
 105.07421875 466.830078125 l 9
 266.400009155 473.600006104 l 25
 269.400009155 380.600006104 l 25
 103.599609375 374.599609375 l 21
EndSplineSet
EndChar
